# xmcd
#
# Track frame offsets:
#	150
#	15084
#	30209
#	44616
#	58633
#	73085
#	88861
#	106490
#	121623
#	137188
#	155409
#	170143
#	186892
#	200458
#	214170
#	231987
#	244579
#	256606
#	269162
#
# Disc length: 3760 seconds
#
# Revision: 1
# Processed by: cddbd v1.5.2PL0 Copyright (c) Steve Scherf et al.
# Submitted via: EZCDAudioConverter 7.1.0.1
#
DISCID=0c0eae13
DTITLE=Nu Country Traxx Volume 227 US
DYEAR=2018
DGENRE=country
TTITLE0=Eric Paslay - Young Forever
TTITLE1=Cole Swindell - Break Up In The End
TTITLE2=Kelsea Ballerini - I Hate Love Songs
TTITLE3=Chris Young - Hangin' On
TTITLE4=John Schneider - Fish
TTITLE5=Travis Denning - David Ashley Parker From Powder Springs
TTITLE6=The Band Steele - 195
TTITLE7=Southern Halo - Anything Is Possible
TTITLE8=Lucas Hoge - Power Of Garth
TTITLE9=Uncle Si and The Sicotics - As Seen On TV
TTITLE10=Jimmie Allen - Best Shot
TTITLE11=Chris Stapleton - Midnight Train To Memphis
TTITLE12=Jagertown - RearView
TTITLE13=James Dupre - Hurt Good
TTITLE14=Julia Capogrossi - Morgan
TTITLE15=Tebey - Denim On Denim
TTITLE16=Brian Bender - Party With You
TTITLE17=Austin Burke - Whole Lot In Love
TTITLE18=Queeva - Live Like A Song
EXTD=
EXTT0=
EXTT1=
EXTT2=
EXTT3=
EXTT4=
EXTT5=
EXTT6=
EXTT7=
EXTT8=
EXTT9=
EXTT10=
EXTT11=
EXTT12=
EXTT13=
EXTT14=
EXTT15=
EXTT16=
EXTT17=
EXTT18=
PLAYORDER=
